<svg xmlns="http://www.w3.org/2000/svg" xmlns:xlink="http://www.w3.org/1999/xlink" width="100%" height="100%" viewBox="0 0 78 78">
  <defs>
    <clipPath id="clip-path">
      <rect id="Rectangle_22" data-name="Rectangle 22" width="100%" height="100%" fill="#231f1c"/>
    </clipPath>
  </defs>
  <circle id="Ellipse_1" data-name="Ellipse 1" cx="39" cy="39" r="39" fill="#ffd50b"/>
  <g id="Group_12" data-name="Group 12" transform="translate(15.87 13.649)">
    <g id="Group_11" data-name="Group 11" clip-path="url(#clip-path)">
      <path id="Path_35" data-name="Path 35" d="M75.455,112.647A16.753,16.753,0,1,0,58.7,95.895a16.77,16.77,0,0,0,16.753,16.753m0-31.477A14.724,14.724,0,1,1,60.73,95.895,14.736,14.736,0,0,1,75.455,81.17Z" transform="translate(-52.324 -70.543)" fill="#231f1c"/>
      <path id="Path_36" data-name="Path 36" d="M205.586,5.263V1.014a1.014,1.014,0,1,0-2.028,0V5.263a1.014,1.014,0,1,0,2.028,0" transform="translate(-181.442)" fill="#231f1c"/>
      <path id="Path_37" data-name="Path 37" d="M14.773,114.215l-3.681-2.13a1.017,1.017,0,1,0-1.014,1.764l3.681,2.13a1.027,1.027,0,0,0,1.39-.375A1.034,1.034,0,0,0,14.773,114.215Z" transform="translate(-8.527 -99.785)" fill="#231f1c"/>
      <path id="Path_38" data-name="Path 38" d="M14.81,318.29a1.017,1.017,0,1,0-1.014-1.764l-3.681,2.13a1.024,1.024,0,0,0-.375,1.389,1.008,1.008,0,0,0,.882.507,1.025,1.025,0,0,0,.507-.132Z" transform="translate(-8.563 -282.017)" fill="#231f1c"/>
      <path id="Path_39" data-name="Path 39" d="M203.562,409.9v4.249a1.014,1.014,0,0,0,2.028,0V409.9a1.014,1.014,0,1,0-2.028,0" transform="translate(-181.445 -364.465)" fill="#231f1c"/>
      <path id="Path_40" data-name="Path 40" d="M368.783,318.615l-3.681-2.13a1.017,1.017,0,0,0-1.014,1.764l3.681,2.13a1.017,1.017,0,1,0,1.014-1.764Z" transform="translate(-324.074 -281.977)" fill="#231f1c"/>
      <path id="Path_41" data-name="Path 41" d="M364.639,116.145a1.025,1.025,0,0,0,.507-.132l3.681-2.13a1.017,1.017,0,1,0-1.014-1.764l-3.681,2.13a1.015,1.015,0,0,0,.507,1.9Z" transform="translate(-324.117 -99.819)" fill="#231f1c"/>
      <path id="Path_42" data-name="Path 42" d="M103.851,51.483a1.012,1.012,0,0,0,.882-1.521L103.719,48.2a1.017,1.017,0,0,0-1.764,1.014l1.014,1.764A1.019,1.019,0,0,0,103.851,51.483Z" transform="translate(-90.759 -42.509)" fill="#231f1c"/>
      <path id="Path_43" data-name="Path 43" d="M4.056,225.014A1.017,1.017,0,0,0,3.042,224H1.014a1.014,1.014,0,1,0,0,2.028H3.042a1.011,1.011,0,0,0,1.014-1.014" transform="translate(0 -199.663)" fill="#231f1c"/>
      <path id="Path_44" data-name="Path 44" d="M102.929,384.567l-1.014,1.764a1.018,1.018,0,0,0,1.765,1.014l1.014-1.764a1.018,1.018,0,0,0-1.765-1.014Z" transform="translate(-90.72 -342.331)" fill="#231f1c"/>
      <path id="Path_45" data-name="Path 45" d="M296.456,384.23a1.024,1.024,0,0,0-.375,1.389l1.014,1.764a1.018,1.018,0,0,0,1.765-1.014l-1.014-1.764A1.008,1.008,0,0,0,296.456,384.23Z" transform="translate(-263.794 -342.359)" fill="#231f1c"/>
      <path id="Path_46" data-name="Path 46" d="M391.494,224h-2.028a1.014,1.014,0,0,0,0,2.028h2.028a1.014,1.014,0,1,0,0-2.028Z" transform="translate(-346.247 -199.664)" fill="#231f1c"/>
      <path id="Path_47" data-name="Path 47" d="M296.932,51.447a1.021,1.021,0,0,0,.882-.507l1.014-1.764a1.017,1.017,0,1,0-1.764-1.014l-1.014,1.764a1.015,1.015,0,0,0,.375,1.389A1.137,1.137,0,0,0,296.932,51.447Z" transform="translate(-263.762 -42.472)" fill="#231f1c"/>
    </g>
  </g>
</svg>
