<svg xmlns="http://www.w3.org/2000/svg" xmlns:xlink="http://www.w3.org/1999/xlink" width="100%" height="100%" viewBox="0 0 372.115 61.117">
  <defs>
    <clipPath id="clip-path">
      <rect id="Rectangle_3" data-name="Rectangle 3" width="100%" height="100%" fill="none"/>
    </clipPath>
  </defs>
  <g id="Group_2" data-name="Group 2" transform="translate(0 0)">
    <g id="Group_1" data-name="Group 1" transform="translate(0 0)" >
      <path id="Path_1" data-name="Path 1" d="M89.632,20.909V37.3H79.278V.254h.507l20.912,16.9V.762h10.4V37.812h-.457Zm54.3,6.04c0,6.954-5.178,11.116-14.719,11.116a30.336,30.336,0,0,1-11.165-1.979V25.935a23.338,23.338,0,0,0,10.608,2.894c3.2,0,4.922-.56,4.922-1.879,0-1.522-2.386-2.233-6.294-3.755-5.887-2.285-10.048-4.721-10.048-11.724,0-6.852,5.632-11.47,14.313-11.47a27.481,27.481,0,0,1,9.946,1.725V11.47a17.163,17.163,0,0,0-9.033-2.335c-2.995,0-4.823.864-4.823,2.335,0,1.321,2.234,2.233,5.939,3.755,5.888,2.437,10.354,4.924,10.354,11.724M174.351.762V9.694h-8.77V37.3H154.923V9.694h-8.768V.762Zm14.9,16.749h3.96c2.131,0,4.06-.914,4.06-3.908,0-2.892-1.929-3.908-4.06-3.908h-3.96V37.3H178.9V.762h13.755c8.981,0,15.327,4.213,15.327,12.841,0,5.176-1.91,8.41-5.92,10.338L210.049,37.3H199.036L189.251,17.51M214.012.762h10.608v21.57c0,3.857,1.878,6.039,5.785,6.039s5.786-2.182,5.786-6.039V.762h10.659V23.5c0,8.679-6.04,14.566-16.445,14.566-10.353,0-16.393-5.887-16.393-14.566Zm40.91,36.54V.762h10.606V28.371h11.917V37.3Zm37.932,0H282.246V.762h10.608ZM327.306.762V9.694h-9.338V37.3H307.309V9.694h-9.338V.762Zm18.873,24.817a61.931,61.931,0,0,1-2.59-6.8h-.1a62.437,62.437,0,0,1-2.589,6.8l-2.943,6.9L335.723,37.3H324.708L343.284.254h.509L362.369,37.3H351.355l-2.285-4.819ZM55.018,0A18.846,18.846,0,0,0,36.86,11.953c-3.242,7.753-4.806,16.387-16.886,16.387-6.032,0-9.328-4.411-9.328-9.329,0-4.816,3.4-9.329,9.887-9.329a19.874,19.874,0,0,1,9.328,2.332V2.383A21.533,21.533,0,0,0,19.467,0C8.01,0,0,8.569,0,19.012A18.63,18.63,0,0,0,18.961,38.024c10.472,0,15.172-4.278,19.078-9.408,3.217,5.65,9.328,9.408,16.979,9.408,11.51,0,19.519-8.417,19.519-19.013C74.537,8.569,66.527,0,55.018,0m0,28.341c-5.324,0-8.82-4.411-8.82-9.329,0-4.816,3.5-9.329,8.82-9.329,5.375,0,8.824,4.513,8.824,9.329,0,4.918-3.449,9.329-8.824,9.329" transform="translate(0 0)" fill="#fff"/>
      <path id="Path_2" data-name="Path 2" d="M136.482,37.951H143.5v1.23h-5.693v3.5h5.314v1.23h-5.314v3.973h5.976v1.229h-7.3Z" transform="translate(42.145 11.719)" fill="#fff"/>
      <path id="Path_3" data-name="Path 3" d="M144.167,37.951h1.324v9.934H150.6v1.229h-6.433Z" transform="translate(44.518 11.719)" fill="#fff"/>
      <path id="Path_4" data-name="Path 4" d="M160.094,39.988a2.317,2.317,0,0,0-2.034-1.023c-1.166,0-2.381.551-2.381,1.874,0,1.026.568,1.483,2.349,2.051,1.735.552,3.344,1.119,3.344,3.311,0,2.222-1.908,3.263-3.926,3.263a4.049,4.049,0,0,1-3.438-1.544l1.135-.931a2.7,2.7,0,0,0,2.382,1.246c1.135,0,2.428-.662,2.428-1.94,0-1.372-.929-1.609-2.917-2.271-1.576-.52-2.775-1.215-2.775-3.074,0-2.142,1.845-3.217,3.8-3.217a3.827,3.827,0,0,1,3.123,1.31Z" transform="translate(47.557 11.652)" fill="#fff"/>
      <path id="Path_5" data-name="Path 5" d="M161.838,37.951h7.015v1.23h-5.691v3.5h5.314v1.23h-5.314v3.973h5.976v1.229h-7.3Z" transform="translate(49.975 11.719)" fill="#fff"/>
      <path id="Path_6" data-name="Path 6" d="M169.522,37.951h1.671l6.465,9.272h.031V37.951h1.324V49.114h-1.671l-6.464-9.27h-.033v9.27h-1.324Z" transform="translate(52.348 11.719)" fill="#fff"/>
      <path id="Path_7" data-name="Path 7" d="M187.2,39.181h-3.689v9.934h-1.325V39.181H178.5v-1.23h8.7Z" transform="translate(55.119 11.719)" fill="#fff"/>
      <rect id="Rectangle_2" data-name="Rectangle 2" width="1.324" height="11.163" transform="translate(244.588 49.67)" fill="#fff"/>
      <path id="Path_8" data-name="Path 8" d="M190.386,37.95h4.288a5.357,5.357,0,0,1,5.472,5.582,5.357,5.357,0,0,1-5.472,5.582h-4.288Zm1.323,9.934h2.523c2.555,0,4.493-1.293,4.493-4.352s-1.938-4.352-4.493-4.352h-2.523Z" transform="translate(58.79 11.719)" fill="#fff"/>
      <path id="Path_9" data-name="Path 9" d="M199.5,43.6a5.834,5.834,0,1,1,5.835,5.866A5.667,5.667,0,0,1,199.5,43.6m10.249,0a4.42,4.42,0,1,0-8.829,0,4.42,4.42,0,1,0,8.829,0" transform="translate(61.606 11.652)" fill="#fff"/>
      <path id="Path_10" data-name="Path 10" d="M214.307,37.95H218.6a5.358,5.358,0,0,1,5.471,5.582,5.357,5.357,0,0,1-5.471,5.582h-4.289Zm1.323,9.934h2.523c2.555,0,4.494-1.293,4.494-4.352s-1.94-4.352-4.494-4.352H215.63Z" transform="translate(66.177 11.719)" fill="#fff"/>
      <path id="Path_11" data-name="Path 11" d="M223.931,37.951h7.016v1.23h-5.692v3.5h5.314v1.23h-5.314v3.973h5.976v1.229h-7.3Z" transform="translate(69.149 11.719)" fill="#fff"/>
      <path id="Path_12" data-name="Path 12" d="M235.5,37.951h1.324v9.934h5.108v1.229H235.5Z" transform="translate(72.72 11.719)" fill="#fff"/>
      <path id="Path_13" data-name="Path 13" d="M245.992,37.951h1.243l4.747,11.164h-1.546L249.3,46.37h-5.582l-1.153,2.745h-1.5Zm.6,1.7h-.031l-2.319,5.488H248.8Z" transform="translate(74.442 11.719)" fill="#fff"/>
      <path id="Path_14" data-name="Path 14" d="M254.972,37.951H256.3v9.934H261.4v1.229h-6.433Z" transform="translate(78.734 11.719)" fill="#fff"/>
      <path id="Path_15" data-name="Path 15" d="M269.909,44.857c0,2.428-1.135,4.542-4.212,4.542s-4.209-2.114-4.209-4.542V37.95h1.323v6.718c0,1.8.665,3.5,2.886,3.5s2.887-1.7,2.887-3.5V37.95h1.324Z" transform="translate(80.746 11.719)" fill="#fff"/>
      <path id="Path_16" data-name="Path 16" d="M269.823,47.931l6.448-8.751h-6.353v-1.23h7.961v1.135l-6.448,8.8h6.527v1.229h-8.135Z" transform="translate(83.32 11.719)" fill="#fff"/>
      <path id="Path_17" data-name="Path 17" d="M285.012,29.013a3.869,3.869,0,0,1-5.477,0,3.776,3.776,0,0,1-1.12-2.747,3.864,3.864,0,1,1,6.6,2.747m-5.092-5.1a3.21,3.21,0,0,0-.969,2.355,3.259,3.259,0,0,0,.963,2.374,3.324,3.324,0,0,0,4.714,0,3.264,3.264,0,0,0,.969-2.374,3.329,3.329,0,0,0-3.324-3.336,3.2,3.2,0,0,0-2.353.982m2.277.219a3.292,3.292,0,0,1,1.161.149,1.05,1.05,0,0,1,.656,1.077.917.917,0,0,1-.412.839,1.663,1.663,0,0,1-.611.208,1.023,1.023,0,0,1,.726.415,1.123,1.123,0,0,1,.232.657v.308a3.027,3.027,0,0,0,.012.319.606.606,0,0,0,.037.221l.024.051h-.7c0-.014,0-.024-.009-.044a.312.312,0,0,0-.008-.043l-.02-.136v-.338a1.029,1.029,0,0,0-.4-.971,1.78,1.78,0,0,0-.835-.137h-.584v1.67h-.753V24.134ZM283,24.8a1.942,1.942,0,0,0-.9-.16h-.636v1.543h.671a2.177,2.177,0,0,0,.715-.094A.767.767,0,0,0,283,24.8" transform="translate(85.973 6.92)" fill="#fff"/>
    </g>
  </g>
</svg>
