<svg id="Group_17" data-name="Group 17" xmlns="http://www.w3.org/2000/svg" xmlns:xlink="http://www.w3.org/1999/xlink" width="153.193" height="153.193" viewBox="0 0 153.193 153.193">
  <defs>
    <clipPath id="clip-path">
      <rect id="Rectangle_23" data-name="Rectangle 23" width="153.193" height="153.193" fill="#fff"/>
    </clipPath>
  </defs>
  <g id="Group_16" data-name="Group 16" clip-path="url(#clip-path)">
    <path id="Path_48" data-name="Path 48" d="M76.6,0a76.6,76.6,0,1,0,76.6,76.6A76.654,76.654,0,0,0,76.6,0Zm0,7.472A69.124,69.124,0,1,1,7.473,76.6,69.067,69.067,0,0,1,76.6,7.472M56.747,41.1a8.455,8.455,0,0,0-8.173,8.524v53.884a8.422,8.422,0,0,0,12.552,7.472L107.83,83.95a8.481,8.481,0,0,0,0-14.713L61.125,42.208A8.729,8.729,0,0,0,56.747,41.1Z" fill="#fff"/>
  </g>
</svg>
